<?xml version="1.0" encoding="iso-8859-1"?>
<!-- Generator: Adobe Illustrator 19.0.0, SVG Export Plug-In . SVG Version: 6.00 Build 0)  -->
<svg version="1.1" id="Layer_1" xmlns="http://www.w3.org/2000/svg" xmlns:xlink="http://www.w3.org/1999/xlink" x="0px" y="0px"
	 viewBox="0 0 495 495" style="enable-background:new 0 0 495 495;" xml:space="preserve">
<g>
	<path style="fill:#FFCD00;" d="M461.288,99.116c4.233-8.977,6.611-18.994,6.611-29.559C467.899,31.203,436.696,0,398.342,0
		c-9.92,0-19.529,2.065-28.563,6.138l-68.787,31.017v61.962H461.288z"/>
	<path style="fill:#FFDA44;" d="M194.009,37.154L125.221,6.137C116.188,2.064,106.578,0,96.658,0
		C58.304,0,27.101,31.203,27.101,69.558c0,10.565,2.379,20.582,6.611,29.559h160.297V37.154z"/>
	<rect x="194.009" y="20.886" style="fill:#EEBF00;" width="106.982" height="78.23"/>
	<rect x="49.071" y="238.232" style="fill:#FF5023;" width="198.429" height="256.768"/>
	<rect x="247.5" y="238.232" style="fill:#FF3501;" width="198.429" height="256.768"/>
	<rect x="29.071" y="99.116" style="fill:#FF3501;" width="218.429" height="139.116"/>
	<rect x="247.5" y="99.116" style="fill:#CD2A00;" width="218.429" height="139.116"/>
</g>
<g>
</g>
<g>
</g>
<g>
</g>
<g>
</g>
<g>
</g>
<g>
</g>
<g>
</g>
<g>
</g>
<g>
</g>
<g>
</g>
<g>
</g>
<g>
</g>
<g>
</g>
<g>
</g>
<g>
</g>
</svg>
